#define close_width 6
#define close_height 6
static unsigned char close_bits[] = {
   0x3f, 0x21, 0x2d, 0x2d, 0x21, 0x3f };
